# xmcd
#
# Track frame offsets:
#	200
#	14275
#	29362
#	46082
#	56637
#	72800
#	86100
#
# Disc length: 1344 seconds
#
# Revision: 1
# Processed by: cddbd v1.5.2PL0 Copyright (c) Steve Scherf et al.
# Submitted via: audiograbber 1.82.01
#
DISCID=53053e07
DTITLE=Deep River - Civil War
DYEAR=1996
DGENRE=Country
TTITLE0=Civil War
TTITLE1=Old Lovers, Best Friends
TTITLE2=Dog On A Chain
TTITLE3=Silver Eagle
TTITLE4=My Heart Beats Like Thunder
TTITLE5=Remember Always
TTITLE6=Get Your Own Money
EXTD=
EXTT0=
EXTT1=
EXTT2=
EXTT3=
EXTT4=
EXTT5=
EXTT6=
PLAYORDER=
